<?xml version="1.0" encoding="UTF-8" standalone="no"?>
<!DOCTYPE svg PUBLIC "-//W3C//DTD SVG 1.1//EN"
 "http://www.w3.org/Graphics/SVG/1.1/DTD/svg11.dtd">
<!-- Generated by graphviz version 3.0.0 (20220226.1711)
 -->
<!-- Title: dependency&#45;cruiser output Pages: 1 -->
<svg width="377pt" height="164pt"
 viewBox="0.00 0.00 377.00 164.00" xmlns="http://www.w3.org/2000/svg" xmlns:xlink="http://www.w3.org/1999/xlink">
<g id="graph0" class="graph" transform="scale(1 1) rotate(0) translate(4 160)">
<title>dependency&#45;cruiser output</title>
<polygon fill="white" stroke="transparent" points="-4,4 -4,-160 373,-160 373,4 -4,4"/>
<g id="clust1" class="cluster">
<title>cluster_src</title>
<path fill="#ffffff" stroke="black" stroke-width="2" d="M20,-8C20,-8 349,-8 349,-8 355,-8 361,-14 361,-20 361,-20 361,-136 361,-136 361,-142 355,-148 349,-148 349,-148 20,-148 20,-148 14,-148 8,-142 8,-136 8,-136 8,-20 8,-20 8,-14 14,-8 20,-8"/>
<text text-anchor="middle" x="184.5" y="-136.8" font-family="Helvetica,sans-Serif" font-weight="bold" font-size="9.00">src</text>
</g>
<!-- src/PiParse.ts -->
<g id="node1" class="node">
<title>src/PiParse.ts</title>
<g id="a_node1"><a xlink:href="src/PiParse.ts" xlink:title="PiParse.ts">
<path fill="#ddfeff" stroke="black" d="M136,-78C136,-78 89,-78 89,-78 86,-78 83,-75 83,-72 83,-72 83,-66 83,-66 83,-63 86,-60 89,-60 89,-60 136,-60 136,-60 139,-60 142,-63 142,-66 142,-66 142,-72 142,-72 142,-75 139,-78 136,-78"/>
<text text-anchor="start" x="91" y="-66.8" font-family="Helvetica,sans-Serif" font-size="9.00">PiParse.ts</text>
</a>
</g>
</g>
<!-- src/convertValue.ts -->
<g id="node2" class="node">
<title>src/convertValue.ts</title>
<g id="a_node2"><a xlink:href="src/convertValue.ts" xlink:title="convertValue.ts">
<path fill="#ddfeff" stroke="black" d="M237.5,-34C237.5,-34 170.5,-34 170.5,-34 167.5,-34 164.5,-31 164.5,-28 164.5,-28 164.5,-22 164.5,-22 164.5,-19 167.5,-16 170.5,-16 170.5,-16 237.5,-16 237.5,-16 240.5,-16 243.5,-19 243.5,-22 243.5,-22 243.5,-28 243.5,-28 243.5,-31 240.5,-34 237.5,-34"/>
<text text-anchor="start" x="172.5" y="-22.8" font-family="Helvetica,sans-Serif" font-size="9.00">convertValue.ts</text>
</a>
</g>
</g>
<!-- src/PiParse.ts&#45;&gt;src/convertValue.ts -->
<g id="edge1" class="edge">
<title>src/PiParse.ts&#45;&gt;src/convertValue.ts</title>
<path fill="none" stroke="#000000" stroke-width="2" stroke-opacity="0.200000" d="M103,-59.67C103,-46.75 103,-25 103,-25 103,-25 158.37,-25 158.37,-25"/>
<polygon fill="#000000" fill-opacity="0.200000" stroke="#000000" stroke-width="2" stroke-opacity="0.200000" points="158.37,-27.1 164.37,-25 158.37,-22.9 158.37,-27.1"/>
</g>
<!-- src/PiParserTypes.ts -->
<g id="node3" class="node">
<title>src/PiParserTypes.ts</title>
<g id="a_node3"><a xlink:href="src/PiParserTypes.ts" xlink:title="PiParserTypes.ts">
<path fill="#ddfeff" stroke="black" d="M347,-56C347,-56 272,-56 272,-56 269,-56 266,-53 266,-50 266,-50 266,-44 266,-44 266,-41 269,-38 272,-38 272,-38 347,-38 347,-38 350,-38 353,-41 353,-44 353,-44 353,-50 353,-50 353,-53 350,-56 347,-56"/>
<text text-anchor="start" x="274" y="-44.8" font-family="Helvetica,sans-Serif" font-size="9.00">PiParserTypes.ts</text>
</a>
</g>
</g>
<!-- src/PiParse.ts&#45;&gt;src/PiParserTypes.ts -->
<g id="edge2" class="edge">
<title>src/PiParse.ts&#45;&gt;src/PiParserTypes.ts</title>
<path fill="none" stroke="#000000" stroke-opacity="0.200000" d="M123,-59.84C123,-55.61 123,-51.5 123,-51.5 123,-51.5 259.77,-51.5 259.77,-51.5"/>
<polygon fill="none" stroke="#000000" stroke-opacity="0.200000" points="259.77,-53.6 265.77,-51.5 259.77,-49.4 259.77,-53.6"/>
</g>
<!-- src/splitKeyValuePair.ts -->
<g id="node4" class="node">
<title>src/splitKeyValuePair.ts</title>
<g id="a_node4"><a xlink:href="src/splitKeyValuePair.ts" xlink:title="splitKeyValuePair.ts">
<path fill="#ddfeff" stroke="black" d="M247,-78C247,-78 161,-78 161,-78 158,-78 155,-75 155,-72 155,-72 155,-66 155,-66 155,-63 158,-60 161,-60 161,-60 247,-60 247,-60 250,-60 253,-63 253,-66 253,-66 253,-72 253,-72 253,-75 250,-78 247,-78"/>
<text text-anchor="start" x="163" y="-66.8" font-family="Helvetica,sans-Serif" font-size="9.00">splitKeyValuePair.ts</text>
</a>
</g>
</g>
<!-- src/PiParse.ts&#45;&gt;src/splitKeyValuePair.ts -->
<g id="edge3" class="edge">
<title>src/PiParse.ts&#45;&gt;src/splitKeyValuePair.ts</title>
<path fill="none" stroke="#000000" stroke-width="2" stroke-opacity="0.200000" d="M142.21,-69C142.21,-69 148.85,-69 148.85,-69"/>
<polygon fill="#000000" fill-opacity="0.200000" stroke="#000000" stroke-width="2" stroke-opacity="0.200000" points="148.85,-71.1 154.85,-69 148.85,-66.9 148.85,-71.1"/>
</g>
<!-- src/splitValues.ts -->
<g id="node5" class="node">
<title>src/splitValues.ts</title>
<g id="a_node5"><a xlink:href="src/splitValues.ts" xlink:title="splitValues.ts">
<path fill="#ddfeff" stroke="black" d="M234,-108C234,-108 174,-108 174,-108 171,-108 168,-105 168,-102 168,-102 168,-96 168,-96 168,-93 171,-90 174,-90 174,-90 234,-90 234,-90 237,-90 240,-93 240,-96 240,-96 240,-102 240,-102 240,-105 237,-108 234,-108"/>
<text text-anchor="start" x="176" y="-96.8" font-family="Helvetica,sans-Serif" font-size="9.00">splitValues.ts</text>
</a>
</g>
</g>
<!-- src/PiParse.ts&#45;&gt;src/splitValues.ts -->
<g id="edge4" class="edge">
<title>src/PiParse.ts&#45;&gt;src/splitValues.ts</title>
<path fill="none" stroke="#000000" stroke-width="2" stroke-opacity="0.200000" d="M123,-78.09C123,-85.59 123,-95 123,-95 123,-95 161.76,-95 161.76,-95"/>
<polygon fill="#000000" fill-opacity="0.200000" stroke="#000000" stroke-width="2" stroke-opacity="0.200000" points="161.76,-97.1 167.76,-95 161.76,-92.9 161.76,-97.1"/>
</g>
<!-- src/convertValue.ts&#45;&gt;src/PiParserTypes.ts -->
<g id="edge5" class="edge">
<title>src/convertValue.ts&#45;&gt;src/PiParserTypes.ts</title>
<path fill="none" stroke="#000000" stroke-opacity="0.200000" d="M204,-34.16C204,-38.39 204,-42.5 204,-42.5 204,-42.5 259.98,-42.5 259.98,-42.5"/>
<polygon fill="none" stroke="#000000" stroke-opacity="0.200000" points="259.98,-44.6 265.98,-42.5 259.98,-40.4 259.98,-44.6"/>
</g>
<!-- src/index.ts -->
<g id="node6" class="node">
<title>src/index.ts</title>
<g id="a_node6"><a xlink:href="src/index.ts" xlink:title="index.ts">
<path fill="#ddfeff" stroke="black" d="M64,-100C64,-100 22,-100 22,-100 19,-100 16,-97 16,-94 16,-94 16,-88 16,-88 16,-85 19,-82 22,-82 22,-82 64,-82 64,-82 67,-82 70,-85 70,-88 70,-88 70,-94 70,-94 70,-97 67,-100 64,-100"/>
<text text-anchor="start" x="27" y="-88.8" font-family="Helvetica,sans-Serif" font-size="9.00">index.ts</text>
</a>
</g>
</g>
<!-- src/index.ts&#45;&gt;src/PiParse.ts -->
<g id="edge6" class="edge">
<title>src/index.ts&#45;&gt;src/PiParse.ts</title>
<path fill="none" stroke="#000000" stroke-width="2" stroke-opacity="0.200000" d="M70.19,-86C86.07,-86 103,-86 103,-86 103,-86 103,-84.3 103,-84.3"/>
<polygon fill="#000000" fill-opacity="0.200000" stroke="#000000" stroke-width="2" stroke-opacity="0.200000" points="105.1,-78.3 103,-84.3 100.9,-78.3 105.1,-78.3"/>
</g>
<!-- src/index.ts&#45;&gt;src/PiParserTypes.ts -->
<g id="edge7" class="edge">
<title>src/index.ts&#45;&gt;src/PiParserTypes.ts</title>
<path fill="none" stroke="#000000" stroke-opacity="0.200000" d="M43,-81.67C43,-68.75 43,-47 43,-47 43,-47 259.79,-47 259.79,-47"/>
<polygon fill="none" stroke="#000000" stroke-opacity="0.200000" points="259.79,-49.1 265.79,-47 259.79,-44.9 259.79,-49.1"/>
</g>
</g>
</svg>
